<svg width="800" height="400" viewBox="0 0 800 400" xmlns="http://www.w3.org/2000/svg"><defs><pattern id="satori_pattern_id_1" x="0" y="0" width="0.125" height="0.25" patternUnits="objectBoundingBox"><radialGradient id="satori_radial_id_1"><stop offset="0" stop-color="lightgray"/><stop offset="0.02" stop-color="lightgray"/><stop offset="0" stop-color="transparent"/><stop offset="1" stop-color="transparent"/></radialGradient><mask id="satori_mask_id_1"><rect x="0" y="0" width="100" height="100" fill="#fff"/></mask><rect x="0" y="0" width="100" height="100" fill="transparent"/><circle cx="75" cy="75" width="100" height="100" r="106.06601717798213" fill="url(#satori_radial_id_1)" mask="url(#satori_mask_id_1)"/></pattern><pattern id="satori_pattern_id_0" x="0" y="0" width="0.125" height="0.25" patternUnits="objectBoundingBox"><radialGradient id="satori_radial_id_0"><stop offset="0" stop-color="lightgray"/><stop offset="0.02" stop-color="lightgray"/><stop offset="0" stop-color="transparent"/><stop offset="1" stop-color="transparent"/></radialGradient><mask id="satori_mask_id_0"><rect x="0" y="0" width="100" height="100" fill="#fff"/></mask><rect x="0" y="0" width="100" height="100" fill="transparent"/><circle cx="25" cy="25" width="100" height="100" r="106.06601717798213" fill="url(#satori_radial_id_0)" mask="url(#satori_mask_id_0)"/></pattern></defs><mask id="satori_om-id"><rect x="0" y="0" width="800" height="400" fill="#fff"/></mask><rect x="0" y="0" width="800" height="400" fill="white"/><rect x="0" y="0" width="800" height="400" fill="url(#satori_pattern_id_1)"/><rect x="0" y="0" width="800" height="400" fill="url(#satori_pattern_id_0)"/><mask id="satori_om-id-0"><rect x="0" y="176" width="570" height="48" fill="#fff"/></mask><path fill="#2e44e9" d="M81.2 213.4L62.5 213.4L62.5 184.3L68.7 184.3L68.7 208.4L81.2 208.4L81.2 213.4ZM95.0 213.9L95.0 213.9Q91.7 213.9 89.3 212.5Q86.8 211.0 85.5 208.5Q84.2 206.0 84.2 202.6L84.2 202.6Q84.2 199.2 85.5 196.7Q86.8 194.2 89.3 192.8Q91.7 191.3 95.0 191.3L95.0 191.3Q98.3 191.3 100.7 192.8Q103.1 194.2 104.4 196.7Q105.7 199.2 105.7 202.6L105.7 202.6Q105.7 206.0 104.4 208.5Q103.1 211.0 100.7 212.5Q98.3 213.9 95.0 213.9ZM95 209.2L95 209.2Q96.5 209.2 97.5 208.3Q98.5 207.5 99.0 206.0Q99.6 204.5 99.6 202.6L99.6 202.6Q99.6 200.7 99.0 199.2Q98.5 197.7 97.5 196.8Q96.5 196.0 95 196.0L95 196.0Q93.5 196.0 92.5 196.8Q91.4 197.7 90.9 199.2Q90.4 200.7 90.4 202.6L90.4 202.6Q90.4 204.5 90.9 206.0Q91.4 207.5 92.5 208.3Q93.5 209.2 95 209.2ZM119.5 222.1L119.5 222.1Q116.5 222.1 114.5 221.3Q112.4 220.5 111.1 219.1Q109.9 217.7 109.5 216.0L109.5 216.0L115.1 215.2Q115.4 215.9 115.9 216.5Q116.5 217.0 117.4 217.4Q118.3 217.7 119.6 217.7L119.6 217.7Q121.6 217.7 122.9 216.8Q124.2 215.8 124.2 213.6L124.2 213.6L124.2 209.6L123.9 209.6Q123.5 210.5 122.7 211.3Q121.9 212.1 120.7 212.6Q119.4 213.1 117.7 213.1L117.7 213.1Q115.2 213.1 113.2 212.0Q111.2 210.8 110.0 208.5Q108.8 206.1 108.8 202.5L108.8 202.5Q108.8 198.8 110.1 196.3Q111.3 193.8 113.3 192.6Q115.3 191.3 117.7 191.3L117.7 191.3Q119.5 191.3 120.8 192.0Q122.0 192.6 122.7 193.5Q123.5 194.4 123.9 195.3L123.9 195.3L124.1 195.3L124.1 191.6L130.2 191.6L130.2 213.7Q130.2 216.4 128.8 218.3Q127.4 220.2 125.0 221.1Q122.6 222.1 119.5 222.1ZM119.6 208.6L119.6 208.6Q121.1 208.6 122.1 207.9Q123.1 207.1 123.7 205.7Q124.2 204.4 124.2 202.5L124.2 202.5Q124.2 200.5 123.7 199.1Q123.1 197.7 122.1 196.9Q121.1 196.2 119.6 196.2L119.6 196.2Q118.1 196.2 117.1 197.0Q116.1 197.8 115.6 199.2Q115.0 200.6 115.0 202.5L115.0 202.5Q115.0 204.3 115.6 205.7Q116.1 207.1 117.1 207.8Q118.1 208.6 119.6 208.6ZM141.0 213.4L135.0 213.4L135.0 191.6L141.0 191.6L141.0 213.4ZM138.0 188.8L138.0 188.8Q136.7 188.8 135.7 187.9Q134.8 187.0 134.8 185.7L134.8 185.7Q134.8 184.5 135.7 183.6Q136.7 182.7 138.0 182.7L138.0 182.7Q139.4 182.7 140.3 183.6Q141.3 184.5 141.3 185.7L141.3 185.7Q141.3 187.0 140.3 187.9Q139.4 188.8 138.0 188.8ZM155.7 213.9L155.7 213.9Q152.4 213.9 150.0 212.4Q147.6 211.0 146.3 208.5Q145.0 205.9 145.0 202.6L145.0 202.6Q145.0 199.3 146.3 196.7Q147.6 194.2 150.0 192.8Q152.4 191.3 155.7 191.3L155.7 191.3Q158.6 191.3 160.7 192.4Q162.8 193.4 164.1 195.3Q165.3 197.2 165.5 199.7L165.5 199.7L159.8 199.7Q159.5 198.1 158.5 197.1Q157.5 196.1 155.8 196.1L155.8 196.1Q154.4 196.1 153.3 196.8Q152.3 197.6 151.7 199.0Q151.1 200.5 151.1 202.5L151.1 202.5Q151.1 204.6 151.7 206.1Q152.3 207.5 153.3 208.3Q154.4 209.1 155.8 209.1L155.8 209.1Q156.8 209.1 157.7 208.7Q158.5 208.2 159.0 207.4Q159.6 206.6 159.8 205.4L159.8 205.4L165.5 205.4Q165.3 207.9 164.1 209.8Q162.9 211.7 160.8 212.8Q158.6 213.9 155.7 213.9Z M197.0 184.3L203.1 184.3L203.1 213.4L197.8 213.4L185.1 195.1L184.9 195.1L184.9 213.4L178.8 213.4L178.8 184.3L184.1 184.3L196.7 202.6L197.0 202.6L197.0 184.3ZM218.0 213.9L218.0 213.9Q214.6 213.9 212.2 212.5Q209.8 211.1 208.5 208.6Q207.2 206.1 207.2 202.6L207.2 202.6Q207.2 199.3 208.5 196.7Q209.8 194.2 212.2 192.8Q214.5 191.3 217.7 191.3L217.7 191.3Q219.9 191.3 221.8 192.0Q223.6 192.7 225.0 194.1Q226.4 195.5 227.2 197.6Q228.0 199.6 228.0 202.4L228.0 202.4L228.0 204.1L209.6 204.1L209.6 200.3L222.3 200.3Q222.3 199.0 221.7 198.0Q221.2 197.0 220.2 196.4Q219.2 195.9 217.8 195.9L217.8 195.9Q216.5 195.9 215.4 196.5Q214.3 197.1 213.8 198.2Q213.2 199.2 213.1 200.5L213.1 200.5L213.1 204.1Q213.1 205.7 213.7 206.9Q214.3 208.1 215.5 208.7Q216.6 209.3 218.1 209.3L218.1 209.3Q219.1 209.3 219.9 209.1Q220.8 208.8 221.4 208.2Q222.0 207.6 222.3 206.8L222.3 206.8L227.9 207.2Q227.4 209.2 226.1 210.7Q224.8 212.2 222.7 213.0Q220.7 213.9 218.0 213.9ZM230.4 191.6L236.6 191.6L240.6 199.2L244.7 191.6L251.0 191.6L244.6 202.5L251.1 213.4L244.9 213.4L240.6 205.9L236.4 213.4L230.2 213.4L236.6 202.5L230.4 191.6ZM268.5 204.2L268.5 204.2L268.5 191.6L274.6 191.6L274.6 213.4L268.8 213.4L268.8 209.5L268.5 209.5Q267.8 211.4 266.1 212.6Q264.4 213.7 261.9 213.7L261.9 213.7Q259.7 213.7 258.1 212.7Q256.4 211.7 255.5 209.9Q254.5 208.1 254.5 205.5L254.5 205.5L254.5 191.6L260.6 191.6L260.6 204.4Q260.6 206.4 261.6 207.5Q262.6 208.6 264.4 208.6L264.4 208.6Q265.5 208.6 266.4 208.1Q267.4 207.6 267.9 206.6Q268.5 205.6 268.5 204.2ZM297.6 197.8L297.6 197.8L292.0 198.2Q291.9 197.5 291.4 196.9Q290.9 196.3 290.2 196.0Q289.4 195.6 288.4 195.6L288.4 195.6Q287.0 195.6 286.0 196.2Q285.0 196.8 285.0 197.8L285.0 197.8Q285.0 198.6 285.7 199.1Q286.3 199.6 287.8 200.0L287.8 200.0L291.7 200.8Q294.9 201.4 296.5 202.9Q298.1 204.3 298.1 206.7L298.1 206.7Q298.1 208.8 296.8 210.4Q295.5 212.1 293.4 213.0Q291.2 213.9 288.3 213.9L288.3 213.9Q284.0 213.9 281.4 212.1Q278.9 210.2 278.4 207.1L278.4 207.1L284.4 206.8Q284.7 208.1 285.7 208.8Q286.7 209.5 288.4 209.5L288.4 209.5Q289.9 209.5 290.9 208.9Q291.9 208.3 291.9 207.3L291.9 207.3Q291.9 206.5 291.2 205.9Q290.5 205.4 289.1 205.1L289.1 205.1L285.3 204.4Q282.1 203.7 280.6 202.1Q279.0 200.6 279.0 198.1L279.0 198.1Q279.0 196.0 280.2 194.5Q281.3 193.0 283.4 192.2Q285.5 191.3 288.3 191.3L288.3 191.3Q292.4 191.3 294.8 193.1Q297.2 194.8 297.6 197.8Z M311.8 199.1L325.1 199.1L325.1 203.9L311.8 203.9L311.8 199.1Z M347.5 189.4L338.6 189.4L338.6 184.3L362.4 184.3L362.4 189.4L353.5 189.4L353.5 213.4L347.5 213.4L347.5 189.4ZM373.0 213.9L373.0 213.9Q369.7 213.9 367.3 212.5Q364.8 211.1 363.5 208.6Q362.2 206.1 362.2 202.6L362.2 202.6Q362.2 199.3 363.5 196.7Q364.8 194.2 367.2 192.8Q369.6 191.3 372.8 191.3L372.8 191.3Q375.0 191.3 376.8 192.0Q378.7 192.7 380.1 194.1Q381.5 195.5 382.3 197.6Q383.1 199.6 383.1 202.4L383.1 202.4L383.1 204.1L364.6 204.1L364.6 200.3L377.4 200.3Q377.4 199.0 376.8 198.0Q376.2 197.0 375.2 196.4Q374.2 195.9 372.9 195.9L372.9 195.9Q371.5 195.9 370.5 196.5Q369.4 197.1 368.8 198.2Q368.2 199.2 368.2 200.5L368.2 200.5L368.2 204.1Q368.2 205.7 368.8 206.9Q369.4 208.1 370.5 208.7Q371.6 209.3 373.1 209.3L373.1 209.3Q374.1 209.3 375.0 209.1Q375.8 208.8 376.4 208.2Q377.0 207.6 377.3 206.8L377.3 206.8L382.9 207.2Q382.5 209.2 381.2 210.7Q379.9 212.2 377.8 213.0Q375.7 213.9 373.0 213.9ZM396.9 213.9L396.9 213.9Q393.5 213.9 391.1 212.4Q388.7 211.0 387.4 208.5Q386.1 205.9 386.1 202.6L386.1 202.6Q386.1 199.3 387.4 196.7Q388.7 194.2 391.1 192.8Q393.5 191.3 396.8 191.3L396.8 191.3Q399.7 191.3 401.8 192.4Q404.0 193.4 405.2 195.3Q406.5 197.2 406.6 199.7L406.6 199.7L400.9 199.7Q400.7 198.1 399.6 197.1Q398.6 196.1 396.9 196.1L396.9 196.1Q395.5 196.1 394.5 196.8Q393.4 197.6 392.9 199.0Q392.3 200.5 392.3 202.5L392.3 202.5Q392.3 204.6 392.8 206.1Q393.4 207.5 394.5 208.3Q395.5 209.1 396.9 209.1L396.9 209.1Q398.0 209.1 398.8 208.7Q399.6 208.2 400.2 207.4Q400.7 206.6 400.9 205.4L400.9 205.4L406.6 205.4Q406.5 207.9 405.2 209.8Q404.0 211.7 401.9 212.8Q399.8 213.9 396.9 213.9ZM416.5 200.8L416.5 200.8L416.5 213.4L410.5 213.4L410.5 184.3L416.4 184.3L416.4 195.5L416.6 195.5Q417.4 193.5 419.0 192.4Q420.7 191.3 423.2 191.3L423.2 191.3Q425.4 191.3 427.1 192.3Q428.8 193.3 429.8 195.2Q430.7 197.0 430.7 199.5L430.7 199.5L430.7 213.4L424.6 213.4L424.6 200.6Q424.7 198.6 423.6 197.5Q422.6 196.4 420.8 196.4L420.8 196.4Q419.5 196.4 418.6 196.9Q417.6 197.4 417.1 198.4Q416.6 199.4 416.5 200.8ZM441.5 200.8L441.5 200.8L441.5 213.4L435.5 213.4L435.5 191.6L441.2 191.6L441.2 195.5L441.5 195.5Q442.2 193.6 443.9 192.5Q445.6 191.3 448.1 191.3L448.1 191.3Q450.3 191.3 452.0 192.3Q453.7 193.3 454.6 195.2Q455.6 197.0 455.6 199.5L455.6 199.5L455.6 213.4L449.5 213.4L449.5 200.6Q449.5 198.6 448.5 197.5Q447.5 196.4 445.7 196.4L445.7 196.4Q444.4 196.4 443.5 196.9Q442.6 197.4 442.1 198.4Q441.5 199.4 441.5 200.8ZM470.2 213.9L470.2 213.9Q466.9 213.9 464.5 212.5Q462.1 211.0 460.8 208.5Q459.5 206.0 459.5 202.6L459.5 202.6Q459.5 199.2 460.8 196.7Q462.1 194.2 464.5 192.8Q466.9 191.3 470.2 191.3L470.2 191.3Q473.5 191.3 475.9 192.8Q478.3 194.2 479.6 196.7Q480.9 199.2 480.9 202.6L480.9 202.6Q480.9 206.0 479.6 208.5Q478.3 211.0 475.9 212.5Q473.5 213.9 470.2 213.9ZM470.2 209.2L470.2 209.2Q471.7 209.2 472.7 208.3Q473.8 207.5 474.3 206.0Q474.8 204.5 474.8 202.6L474.8 202.6Q474.8 200.7 474.3 199.2Q473.8 197.7 472.7 196.8Q471.7 196.0 470.2 196.0L470.2 196.0Q468.7 196.0 467.7 196.8Q466.6 197.7 466.1 199.2Q465.6 200.7 465.6 202.6L465.6 202.6Q465.6 204.5 466.1 206.0Q466.6 207.5 467.7 208.3Q468.7 209.2 470.2 209.2ZM484.9 184.3L490.9 184.3L490.9 213.4L484.9 213.4L484.9 184.3ZM505.6 213.9L505.6 213.9Q502.3 213.9 499.9 212.5Q497.5 211.0 496.2 208.5Q494.9 206.0 494.9 202.6L494.9 202.6Q494.9 199.2 496.2 196.7Q497.5 194.2 499.9 192.8Q502.3 191.3 505.6 191.3L505.6 191.3Q508.9 191.3 511.3 192.8Q513.8 194.2 515.1 196.7Q516.4 199.2 516.4 202.6L516.4 202.6Q516.4 206.0 515.1 208.5Q513.8 211.0 511.3 212.5Q508.9 213.9 505.6 213.9ZM505.7 209.2L505.7 209.2Q507.2 209.2 508.2 208.3Q509.2 207.5 509.7 206.0Q510.2 204.5 510.2 202.6L510.2 202.6Q510.2 200.7 509.7 199.2Q509.2 197.7 508.2 196.8Q507.2 196.0 505.7 196.0L505.7 196.0Q504.1 196.0 503.1 196.8Q502.1 197.7 501.6 199.2Q501.0 200.7 501.0 202.6L501.0 202.6Q501.0 204.5 501.6 206.0Q502.1 207.5 503.1 208.3Q504.1 209.2 505.7 209.2ZM530.1 222.1L530.1 222.1Q527.2 222.1 525.1 221.3Q523.0 220.5 521.8 219.1Q520.5 217.7 520.2 216.0L520.2 216.0L525.8 215.2Q526.0 215.9 526.6 216.5Q527.1 217.0 528.0 217.4Q529.0 217.7 530.3 217.7L530.3 217.7Q532.3 217.7 533.5 216.8Q534.8 215.8 534.8 213.6L534.8 213.6L534.8 209.6L534.6 209.6Q534.2 210.5 533.4 211.3Q532.6 212.1 531.3 212.6Q530.1 213.1 528.4 213.1L528.4 213.1Q525.9 213.1 523.9 212.0Q521.9 210.8 520.7 208.5Q519.5 206.1 519.5 202.5L519.5 202.5Q519.5 198.8 520.7 196.3Q521.9 193.8 523.9 192.6Q525.9 191.3 528.3 191.3L528.3 191.3Q530.2 191.3 531.4 192.0Q532.6 192.6 533.4 193.5Q534.2 194.4 534.6 195.3L534.6 195.3L534.8 195.3L534.8 191.6L540.8 191.6L540.8 213.7Q540.8 216.4 539.4 218.3Q538.1 220.2 535.7 221.1Q533.3 222.1 530.1 222.1ZM530.3 208.6L530.3 208.6Q531.7 208.6 532.7 207.9Q533.8 207.1 534.3 205.7Q534.9 204.4 534.9 202.5L534.9 202.5Q534.9 200.5 534.3 199.1Q533.8 197.7 532.8 196.9Q531.7 196.2 530.3 196.2L530.3 196.2Q528.8 196.2 527.8 197.0Q526.7 197.8 526.2 199.2Q525.7 200.6 525.7 202.5L525.7 202.5Q525.7 204.3 526.2 205.7Q526.7 207.1 527.8 207.8Q528.8 208.6 530.3 208.6ZM549.4 221.6L549.4 221.6Q548.2 221.6 547.2 221.4Q546.2 221.3 545.6 221.0L545.6 221.0L546.9 216.5Q548.0 216.8 548.9 216.8Q549.7 216.9 550.3 216.4Q551.0 216.0 551.4 215.0L551.4 215.0L551.7 214.1L543.9 191.6L550.3 191.6L554.8 207.6L555.0 207.6L559.6 191.6L566.0 191.6L557.5 215.8Q556.9 217.6 555.8 218.9Q554.8 220.2 553.2 220.9Q551.6 221.6 549.4 221.6Z "/></svg>